<?xml version="1.0" encoding="UTF-8" standalone="no"?>
<!DOCTYPE svg PUBLIC "-//W3C//DTD SVG 1.1//EN"
 "http://www.w3.org/Graphics/SVG/1.1/DTD/svg11.dtd">
<!-- Generated by graphviz version 12.2.1 (20241206.2353)
 -->
<!-- Title: dependency&#45;cruiser output Pages: 1 -->
<svg width="822pt" height="468pt"
 viewBox="0.00 0.00 821.88 468.00" xmlns="http://www.w3.org/2000/svg" xmlns:xlink="http://www.w3.org/1999/xlink">
<g id="graph0" class="graph" transform="scale(1 1) rotate(0) translate(4 464)">
<title>dependency&#45;cruiser output</title>
<polygon fill="white" stroke="none" points="-4,4 -4,-464 817.88,-464 817.88,4 -4,4"/>
<g id="clust1" class="cluster">
<title>cluster_src</title>
<path fill="#ffffff" stroke="black" stroke-width="2" d="M20,-8C20,-8 793.88,-8 793.88,-8 799.88,-8 805.88,-14 805.88,-20 805.88,-20 805.88,-440 805.88,-440 805.88,-446 799.88,-452 793.88,-452 793.88,-452 20,-452 20,-452 14,-452 8,-446 8,-440 8,-440 8,-20 8,-20 8,-14 14,-8 20,-8"/>
<text text-anchor="middle" x="406.94" y="-439.45" font-family="Helvetica,sans-Serif" font-weight="bold" font-size="9.00">src</text>
</g>
<g id="clust2" class="cluster">
<title>cluster_src/AuthComponents</title>
<path fill="#ffffff" stroke="black" stroke-width="2" d="M510.5,-214C510.5,-214 577.5,-214 577.5,-214 583.5,-214 589.5,-220 589.5,-226 589.5,-226 589.5,-284 589.5,-284 589.5,-290 583.5,-296 577.5,-296 577.5,-296 510.5,-296 510.5,-296 504.5,-296 498.5,-290 498.5,-284 498.5,-284 498.5,-226 498.5,-226 498.5,-220 504.5,-214 510.5,-214"/>
<text text-anchor="middle" x="544" y="-283.45" font-family="Helvetica,sans-Serif" font-weight="bold" font-size="9.00">AuthComponents</text>
</g>
<g id="clust3" class="cluster">
<title>cluster_src/Context</title>
<path fill="#ffffff" stroke="black" stroke-width="2" d="M626.88,-172C626.88,-172 694.88,-172 694.88,-172 700.88,-172 706.88,-178 706.88,-184 706.88,-184 706.88,-212 706.88,-212 706.88,-218 700.88,-224 694.88,-224 694.88,-224 626.88,-224 626.88,-224 620.88,-224 614.88,-218 614.88,-212 614.88,-212 614.88,-184 614.88,-184 614.88,-178 620.88,-172 626.88,-172"/>
<text text-anchor="middle" x="660.88" y="-211.45" font-family="Helvetica,sans-Serif" font-weight="bold" font-size="9.00">Context</text>
</g>
<g id="clust4" class="cluster">
<title>cluster_src/HomeComponents</title>
<path fill="#ffffff" stroke="black" stroke-width="2" d="M224,-60C224,-60 579.88,-60 579.88,-60 585.88,-60 591.88,-66 591.88,-72 591.88,-72 591.88,-194 591.88,-194 591.88,-200 585.88,-206 579.88,-206 579.88,-206 224,-206 224,-206 218,-206 212,-200 212,-194 212,-194 212,-72 212,-72 212,-66 218,-60 224,-60"/>
<text text-anchor="middle" x="401.94" y="-193.45" font-family="Helvetica,sans-Serif" font-weight="bold" font-size="9.00">HomeComponents</text>
</g>
<g id="clust5" class="cluster">
<title>cluster_src/HomeComponents/Posts</title>
<path fill="#ffffff" stroke="black" stroke-width="2" d="M381,-68C381,-68 571.88,-68 571.88,-68 577.88,-68 583.88,-74 583.88,-80 583.88,-80 583.88,-168 583.88,-168 583.88,-174 577.88,-180 571.88,-180 571.88,-180 381,-180 381,-180 375,-180 369,-174 369,-168 369,-168 369,-80 369,-80 369,-74 375,-68 381,-68"/>
<text text-anchor="middle" x="476.44" y="-167.45" font-family="Helvetica,sans-Serif" font-weight="bold" font-size="9.00">Posts</text>
</g>
<g id="clust6" class="cluster">
<title>cluster_src/ProfileComponents</title>
<path fill="#ffffff" stroke="black" stroke-width="2" d="M506.75,-304C506.75,-304 581.25,-304 581.25,-304 587.25,-304 593.25,-310 593.25,-316 593.25,-316 593.25,-404 593.25,-404 593.25,-410 587.25,-416 581.25,-416 581.25,-416 506.75,-416 506.75,-416 500.75,-416 494.75,-410 494.75,-404 494.75,-404 494.75,-316 494.75,-316 494.75,-310 500.75,-304 506.75,-304"/>
<text text-anchor="middle" x="544" y="-403.45" font-family="Helvetica,sans-Serif" font-weight="bold" font-size="9.00">ProfileComponents</text>
</g>
<g id="clust7" class="cluster">
<title>cluster_src/Service</title>
<path fill="#ffffff" stroke="black" stroke-width="2" d="M726.88,-16C726.88,-16 785.88,-16 785.88,-16 791.88,-16 797.88,-22 797.88,-28 797.88,-28 797.88,-86 797.88,-86 797.88,-92 791.88,-98 785.88,-98 785.88,-98 726.88,-98 726.88,-98 720.88,-98 714.88,-92 714.88,-86 714.88,-86 714.88,-28 714.88,-28 714.88,-22 720.88,-16 726.88,-16"/>
<text text-anchor="middle" x="756.38" y="-85.45" font-family="Helvetica,sans-Serif" font-weight="bold" font-size="9.00">Service</text>
</g>
<!-- src/App.js -->
<g id="node1" class="node">
<title>src/App.js</title>
<g id="a_node1"><a xlink:href="src/App.js" xlink:title="App.js">
<path fill="#ffffcc" stroke="black" d="M131.08,-306.88C131.08,-306.88 88.92,-306.88 88.92,-306.88 85.96,-306.88 83,-303.92 83,-300.96 83,-300.96 83,-295.04 83,-295.04 83,-292.08 85.96,-289.12 88.92,-289.12 88.92,-289.12 131.08,-289.12 131.08,-289.12 134.04,-289.12 137,-292.08 137,-295.04 137,-295.04 137,-300.96 137,-300.96 137,-303.92 134.04,-306.88 131.08,-306.88"/>
<text text-anchor="start" x="97.25" y="-294.32" font-family="Helvetica,sans-Serif" font-size="9.00">App.js</text>
</a>
</g>
</g>
<!-- src/Auth.js -->
<g id="node2" class="node">
<title>src/Auth.js</title>
<g id="a_node2"><a xlink:href="src/Auth.js" xlink:title="Auth.js">
<path fill="#ffffcc" stroke="black" d="M445.83,-269.88C445.83,-269.88 403.67,-269.88 403.67,-269.88 400.71,-269.88 397.75,-266.92 397.75,-263.96 397.75,-263.96 397.75,-258.04 397.75,-258.04 397.75,-255.08 400.71,-252.12 403.67,-252.12 403.67,-252.12 445.83,-252.12 445.83,-252.12 448.79,-252.12 451.75,-255.08 451.75,-258.04 451.75,-258.04 451.75,-263.96 451.75,-263.96 451.75,-266.92 448.79,-269.88 445.83,-269.88"/>
<text text-anchor="start" x="410.88" y="-257.32" font-family="Helvetica,sans-Serif" font-size="9.00">Auth.js</text>
</a>
</g>
</g>
<!-- src/App.js&#45;&gt;src/Auth.js -->
<g id="edge1" class="edge">
<title>src/App.js&#45;&gt;src/Auth.js</title>
<path fill="none" stroke="#000000" stroke-width="2" stroke-opacity="0.200000" d="M137.4,-294.88C193.68,-288.22 325.5,-272.62 388.72,-265.14"/>
<polygon fill="#000000" fill-opacity="0.200000" stroke="#000000" stroke-width="2" stroke-opacity="0.200000" points="388.82,-267.25 394.53,-264.46 388.32,-263.08 388.82,-267.25"/>
</g>
<!-- src/Context/UserContext.js -->
<g id="node3" class="node">
<title>src/Context/UserContext.js</title>
<g id="a_node3"><a xlink:href="src/Context/UserContext.js" xlink:title="UserContext.js">
<path fill="#ffffcc" stroke="black" d="M692.96,-197.88C692.96,-197.88 628.79,-197.88 628.79,-197.88 625.83,-197.88 622.88,-194.92 622.88,-191.96 622.88,-191.96 622.88,-186.04 622.88,-186.04 622.88,-183.08 625.83,-180.12 628.79,-180.12 628.79,-180.12 692.96,-180.12 692.96,-180.12 695.92,-180.12 698.88,-183.08 698.88,-186.04 698.88,-186.04 698.88,-191.96 698.88,-191.96 698.88,-194.92 695.92,-197.88 692.96,-197.88"/>
<text text-anchor="start" x="630.88" y="-185.32" font-family="Helvetica,sans-Serif" font-size="9.00">UserContext.js</text>
</a>
</g>
</g>
<!-- src/App.js&#45;&gt;src/Context/UserContext.js -->
<g id="edge2" class="edge">
<title>src/App.js&#45;&gt;src/Context/UserContext.js</title>
<path fill="none" stroke="#000000" stroke-width="2" stroke-opacity="0.200000" d="M115.15,-307.13C129.09,-336.25 177.23,-425 246.12,-425 246.12,-425 246.12,-425 425.75,-425 500.24,-425 534.51,-464.81 593.25,-419 627.44,-392.34 650.15,-256.42 657.38,-207"/>
<polygon fill="#000000" fill-opacity="0.200000" stroke="#000000" stroke-width="2" stroke-opacity="0.200000" points="659.43,-207.56 658.2,-201.32 655.27,-206.96 659.43,-207.56"/>
</g>
<!-- src/Home.js -->
<g id="node4" class="node">
<title>src/Home.js</title>
<g id="a_node4"><a xlink:href="src/Home.js" xlink:title="Home.js">
<path fill="#ffffcc" stroke="black" d="M198.08,-161.88C198.08,-161.88 155.92,-161.88 155.92,-161.88 152.96,-161.88 150,-158.92 150,-155.96 150,-155.96 150,-150.04 150,-150.04 150,-147.08 152.96,-144.12 155.92,-144.12 155.92,-144.12 198.08,-144.12 198.08,-144.12 201.04,-144.12 204,-147.08 204,-150.04 204,-150.04 204,-155.96 204,-155.96 204,-158.92 201.04,-161.88 198.08,-161.88"/>
<text text-anchor="start" x="160.12" y="-149.32" font-family="Helvetica,sans-Serif" font-size="9.00">Home.js</text>
</a>
</g>
</g>
<!-- src/App.js&#45;&gt;src/Home.js -->
<g id="edge3" class="edge">
<title>src/App.js&#45;&gt;src/Home.js</title>
<path fill="none" stroke="#000000" stroke-width="2" stroke-opacity="0.200000" d="M115.07,-288.93C125.69,-265.23 154.42,-201.15 168.29,-170.19"/>
<polygon fill="#000000" fill-opacity="0.200000" stroke="#000000" stroke-width="2" stroke-opacity="0.200000" points="170.16,-171.16 170.7,-164.83 166.33,-169.45 170.16,-171.16"/>
</g>
<!-- src/Profile.js -->
<g id="node5" class="node">
<title>src/Profile.js</title>
<g id="a_node5"><a xlink:href="src/Profile.js" xlink:title="Profile.js">
<path fill="#ffffcc" stroke="black" d="M445.83,-344.88C445.83,-344.88 403.67,-344.88 403.67,-344.88 400.71,-344.88 397.75,-341.92 397.75,-338.96 397.75,-338.96 397.75,-333.04 397.75,-333.04 397.75,-330.08 400.71,-327.12 403.67,-327.12 403.67,-327.12 445.83,-327.12 445.83,-327.12 448.79,-327.12 451.75,-330.08 451.75,-333.04 451.75,-333.04 451.75,-338.96 451.75,-338.96 451.75,-341.92 448.79,-344.88 445.83,-344.88"/>
<text text-anchor="start" x="407.12" y="-332.32" font-family="Helvetica,sans-Serif" font-size="9.00">Profile.js</text>
</a>
</g>
</g>
<!-- src/App.js&#45;&gt;src/Profile.js -->
<g id="edge4" class="edge">
<title>src/App.js&#45;&gt;src/Profile.js</title>
<path fill="none" stroke="#000000" stroke-width="2" stroke-opacity="0.200000" d="M137.4,-301.21C193.68,-308.05 325.5,-324.06 388.72,-331.74"/>
<polygon fill="#000000" fill-opacity="0.200000" stroke="#000000" stroke-width="2" stroke-opacity="0.200000" points="388.32,-333.81 394.53,-332.45 388.83,-329.64 388.32,-333.81"/>
</g>
<!-- src/AuthComponents/Login.js -->
<g id="node6" class="node">
<title>src/AuthComponents/Login.js</title>
<g id="a_node6"><a xlink:href="src/AuthComponents/Login.js" xlink:title="Login.js">
<path fill="#ffffcc" stroke="black" d="M564.58,-239.88C564.58,-239.88 522.42,-239.88 522.42,-239.88 519.46,-239.88 516.5,-236.92 516.5,-233.96 516.5,-233.96 516.5,-228.04 516.5,-228.04 516.5,-225.08 519.46,-222.12 522.42,-222.12 522.42,-222.12 564.58,-222.12 564.58,-222.12 567.54,-222.12 570.5,-225.08 570.5,-228.04 570.5,-228.04 570.5,-233.96 570.5,-233.96 570.5,-236.92 567.54,-239.88 564.58,-239.88"/>
<text text-anchor="start" x="527.38" y="-227.32" font-family="Helvetica,sans-Serif" font-size="9.00">Login.js</text>
</a>
</g>
</g>
<!-- src/Auth.js&#45;&gt;src/AuthComponents/Login.js -->
<g id="edge5" class="edge">
<title>src/Auth.js&#45;&gt;src/AuthComponents/Login.js</title>
<path fill="none" stroke="#000000" stroke-width="2" stroke-opacity="0.200000" d="M452.24,-254.19C468.66,-249.97 489.94,-244.51 507.71,-239.94"/>
<polygon fill="#000000" fill-opacity="0.200000" stroke="#000000" stroke-width="2" stroke-opacity="0.200000" points="507.89,-242.06 513.18,-238.53 506.85,-237.99 507.89,-242.06"/>
</g>
<!-- src/AuthComponents/Signup.js -->
<g id="node7" class="node">
<title>src/AuthComponents/Signup.js</title>
<g id="a_node7"><a xlink:href="src/AuthComponents/Signup.js" xlink:title="Signup.js">
<path fill="#ffffcc" stroke="black" d="M564.71,-269.88C564.71,-269.88 522.29,-269.88 522.29,-269.88 519.33,-269.88 516.38,-266.92 516.38,-263.96 516.38,-263.96 516.38,-258.04 516.38,-258.04 516.38,-255.08 519.33,-252.12 522.29,-252.12 522.29,-252.12 564.71,-252.12 564.71,-252.12 567.67,-252.12 570.62,-255.08 570.62,-258.04 570.62,-258.04 570.62,-263.96 570.62,-263.96 570.62,-266.92 567.67,-269.88 564.71,-269.88"/>
<text text-anchor="start" x="524.38" y="-257.32" font-family="Helvetica,sans-Serif" font-size="9.00">Signup.js</text>
</a>
</g>
</g>
<!-- src/Auth.js&#45;&gt;src/AuthComponents/Signup.js -->
<g id="edge6" class="edge">
<title>src/Auth.js&#45;&gt;src/AuthComponents/Signup.js</title>
<path fill="none" stroke="#000000" stroke-width="2" stroke-opacity="0.200000" d="M452.24,-261C468.51,-261 489.55,-261 507.22,-261"/>
<polygon fill="#000000" fill-opacity="0.200000" stroke="#000000" stroke-width="2" stroke-opacity="0.200000" points="507.09,-263.1 513.09,-261 507.09,-258.9 507.09,-263.1"/>
</g>
<!-- src/Service/Backend.js -->
<g id="node8" class="node">
<title>src/Service/Backend.js</title>
<g id="a_node8"><a xlink:href="src/Service/Backend.js" xlink:title="Backend.js">
<path fill="#ffffcc" stroke="black" d="M780.96,-71.88C780.96,-71.88 731.79,-71.88 731.79,-71.88 728.83,-71.88 725.88,-68.92 725.88,-65.96 725.88,-65.96 725.88,-60.04 725.88,-60.04 725.88,-57.08 728.83,-54.12 731.79,-54.12 731.79,-54.12 780.96,-54.12 780.96,-54.12 783.92,-54.12 786.88,-57.08 786.88,-60.04 786.88,-60.04 786.88,-65.96 786.88,-65.96 786.88,-68.92 783.92,-71.88 780.96,-71.88"/>
<text text-anchor="start" x="733.88" y="-59.33" font-family="Helvetica,sans-Serif" font-size="9.00">Backend.js</text>
</a>
</g>
</g>
<!-- src/Context/UserContext.js&#45;&gt;src/Service/Backend.js -->
<g id="edge9" class="edge">
<title>src/Context/UserContext.js&#45;&gt;src/Service/Backend.js</title>
<path fill="none" stroke="#000000" stroke-width="2" stroke-opacity="0.200000" d="M668.6,-179.94C684.22,-158.88 723.17,-106.4 743.14,-79.49"/>
<polygon fill="#000000" fill-opacity="0.200000" stroke="#000000" stroke-width="2" stroke-opacity="0.200000" points="744.77,-80.82 746.66,-74.75 741.39,-78.32 744.77,-80.82"/>
</g>
<!-- src/HomeComponents/Footer.js -->
<g id="node9" class="node">
<title>src/HomeComponents/Footer.js</title>
<g id="a_node9"><a xlink:href="src/HomeComponents/Footer.js" xlink:title="Footer.js">
<path fill="#ffffcc" stroke="black" d="M268.21,-85.88C268.21,-85.88 226.04,-85.88 226.04,-85.88 223.08,-85.88 220.12,-82.92 220.12,-79.96 220.12,-79.96 220.12,-74.04 220.12,-74.04 220.12,-71.08 223.08,-68.12 226.04,-68.12 226.04,-68.12 268.21,-68.12 268.21,-68.12 271.17,-68.12 274.12,-71.08 274.12,-74.04 274.12,-74.04 274.12,-79.96 274.12,-79.96 274.12,-82.92 271.17,-85.88 268.21,-85.88"/>
<text text-anchor="start" x="229.5" y="-73.33" font-family="Helvetica,sans-Serif" font-size="9.00">Footer.js</text>
</a>
</g>
</g>
<!-- src/Home.js&#45;&gt;src/HomeComponents/Footer.js -->
<g id="edge10" class="edge">
<title>src/Home.js&#45;&gt;src/HomeComponents/Footer.js</title>
<path fill="none" stroke="#000000" stroke-width="2" stroke-opacity="0.200000" d="M180.94,-143.95C185.61,-130.88 195.86,-106.69 212,-92 212.3,-91.73 212.6,-91.46 212.91,-91.2"/>
<polygon fill="#000000" fill-opacity="0.200000" stroke="#000000" stroke-width="2" stroke-opacity="0.200000" points="213.81,-93.13 217.55,-88 211.42,-89.67 213.81,-93.13"/>
</g>
<!-- src/HomeComponents/LeftBar.js -->
<g id="node10" class="node">
<title>src/HomeComponents/LeftBar.js</title>
<g id="a_node10"><a xlink:href="src/HomeComponents/LeftBar.js" xlink:title="LeftBar.js">
<path fill="#ffffcc" stroke="black" d="M268.33,-177.88C268.33,-177.88 225.92,-177.88 225.92,-177.88 222.96,-177.88 220,-174.92 220,-171.96 220,-171.96 220,-166.04 220,-166.04 220,-163.08 222.96,-160.12 225.92,-160.12 225.92,-160.12 268.33,-160.12 268.33,-160.12 271.29,-160.12 274.25,-163.08 274.25,-166.04 274.25,-166.04 274.25,-171.96 274.25,-171.96 274.25,-174.92 271.29,-177.88 268.33,-177.88"/>
<text text-anchor="start" x="228" y="-165.32" font-family="Helvetica,sans-Serif" font-size="9.00">LeftBar.js</text>
</a>
</g>
</g>
<!-- src/Home.js&#45;&gt;src/HomeComponents/LeftBar.js -->
<g id="edge11" class="edge">
<title>src/Home.js&#45;&gt;src/HomeComponents/LeftBar.js</title>
<path fill="none" stroke="#000000" stroke-width="2" stroke-opacity="0.200000" d="M204.14,-159.14C206.38,-159.66 208.66,-160.2 210.94,-160.74"/>
<polygon fill="#000000" fill-opacity="0.200000" stroke="#000000" stroke-width="2" stroke-opacity="0.200000" points="210.44,-162.78 216.77,-162.1 211.41,-158.69 210.44,-162.78"/>
</g>
<!-- src/HomeComponents/Post.js -->
<g id="node11" class="node">
<title>src/HomeComponents/Post.js</title>
<g id="a_node11"><a xlink:href="src/HomeComponents/Post.js" xlink:title="Post.js">
<path fill="#ffffcc" stroke="black" d="M268.21,-115.88C268.21,-115.88 226.04,-115.88 226.04,-115.88 223.08,-115.88 220.12,-112.92 220.12,-109.96 220.12,-109.96 220.12,-104.04 220.12,-104.04 220.12,-101.08 223.08,-98.12 226.04,-98.12 226.04,-98.12 268.21,-98.12 268.21,-98.12 271.17,-98.12 274.12,-101.08 274.12,-104.04 274.12,-104.04 274.12,-109.96 274.12,-109.96 274.12,-112.92 271.17,-115.88 268.21,-115.88"/>
<text text-anchor="start" x="233.62" y="-103.33" font-family="Helvetica,sans-Serif" font-size="9.00">Post.js</text>
</a>
</g>
</g>
<!-- src/Home.js&#45;&gt;src/HomeComponents/Post.js -->
<g id="edge12" class="edge">
<title>src/Home.js&#45;&gt;src/HomeComponents/Post.js</title>
<path fill="none" stroke="#000000" stroke-width="2" stroke-opacity="0.200000" d="M186.94,-143.83C193.48,-137.45 202.79,-129.05 212,-123 213.4,-122.08 214.85,-121.19 216.34,-120.33"/>
<polygon fill="#000000" fill-opacity="0.200000" stroke="#000000" stroke-width="2" stroke-opacity="0.200000" points="216.99,-122.36 221.29,-117.69 215.01,-118.66 216.99,-122.36"/>
</g>
<!-- src/HomeComponents/Posts/useUpload.js -->
<g id="node12" class="node">
<title>src/HomeComponents/Posts/useUpload.js</title>
<g id="a_node12"><a xlink:href="src/HomeComponents/Posts/useUpload.js" xlink:title="useUpload.js">
<path fill="#ffffcc" stroke="black" d="M453.83,-153.88C453.83,-153.88 395.67,-153.88 395.67,-153.88 392.71,-153.88 389.75,-150.92 389.75,-147.96 389.75,-147.96 389.75,-142.04 389.75,-142.04 389.75,-139.08 392.71,-136.12 395.67,-136.12 395.67,-136.12 453.83,-136.12 453.83,-136.12 456.79,-136.12 459.75,-139.08 459.75,-142.04 459.75,-142.04 459.75,-147.96 459.75,-147.96 459.75,-150.92 456.79,-153.88 453.83,-153.88"/>
<text text-anchor="start" x="397.75" y="-141.32" font-family="Helvetica,sans-Serif" font-size="9.00">useUpload.js</text>
</a>
</g>
</g>
<!-- src/Home.js&#45;&gt;src/HomeComponents/Posts/useUpload.js -->
<g id="edge13" class="edge">
<title>src/Home.js&#45;&gt;src/HomeComponents/Posts/useUpload.js</title>
<path fill="none" stroke="#000000" stroke-width="2" stroke-opacity="0.200000" d="M181.89,-162.31C186.99,-173.17 197.1,-190.58 212,-198 271.28,-227.51 309.79,-239.98 361,-198 375.02,-186.51 356.41,-171.05 369,-158 372.39,-154.48 376.55,-151.85 381.04,-149.88"/>
<polygon fill="#000000" fill-opacity="0.200000" stroke="#000000" stroke-width="2" stroke-opacity="0.200000" points="381.54,-151.93 386.53,-147.99 380.17,-147.95 381.54,-151.93"/>
</g>
<!-- src/HomeComponents/TopBar.js -->
<g id="node13" class="node">
<title>src/HomeComponents/TopBar.js</title>
<g id="a_node13"><a xlink:href="src/HomeComponents/TopBar.js" xlink:title="TopBar.js">
<path fill="#ffffcc" stroke="black" d="M268.33,-146.88C268.33,-146.88 225.92,-146.88 225.92,-146.88 222.96,-146.88 220,-143.92 220,-140.96 220,-140.96 220,-135.04 220,-135.04 220,-132.08 222.96,-129.12 225.92,-129.12 225.92,-129.12 268.33,-129.12 268.33,-129.12 271.29,-129.12 274.25,-132.08 274.25,-135.04 274.25,-135.04 274.25,-140.96 274.25,-140.96 274.25,-143.92 271.29,-146.88 268.33,-146.88"/>
<text text-anchor="start" x="228" y="-134.32" font-family="Helvetica,sans-Serif" font-size="9.00">TopBar.js</text>
</a>
</g>
</g>
<!-- src/Home.js&#45;&gt;src/HomeComponents/TopBar.js -->
<g id="edge14" class="edge">
<title>src/Home.js&#45;&gt;src/HomeComponents/TopBar.js</title>
<path fill="none" stroke="#000000" stroke-width="2" stroke-opacity="0.200000" d="M204.14,-147.24C206.38,-146.75 208.66,-146.25 210.94,-145.75"/>
<polygon fill="#000000" fill-opacity="0.200000" stroke="#000000" stroke-width="2" stroke-opacity="0.200000" points="211.35,-147.81 216.76,-144.47 210.45,-143.71 211.35,-147.81"/>
</g>
<!-- src/ProfileComponents/Footer.js -->
<g id="node19" class="node">
<title>src/ProfileComponents/Footer.js</title>
<g id="a_node19"><a xlink:href="src/ProfileComponents/Footer.js" xlink:title="Footer.js">
<path fill="#ffffcc" stroke="black" d="M564.58,-359.88C564.58,-359.88 522.42,-359.88 522.42,-359.88 519.46,-359.88 516.5,-356.92 516.5,-353.96 516.5,-353.96 516.5,-348.04 516.5,-348.04 516.5,-345.08 519.46,-342.12 522.42,-342.12 522.42,-342.12 564.58,-342.12 564.58,-342.12 567.54,-342.12 570.5,-345.08 570.5,-348.04 570.5,-348.04 570.5,-353.96 570.5,-353.96 570.5,-356.92 567.54,-359.88 564.58,-359.88"/>
<text text-anchor="start" x="525.88" y="-347.32" font-family="Helvetica,sans-Serif" font-size="9.00">Footer.js</text>
</a>
</g>
</g>
<!-- src/Profile.js&#45;&gt;src/ProfileComponents/Footer.js -->
<g id="edge26" class="edge">
<title>src/Profile.js&#45;&gt;src/ProfileComponents/Footer.js</title>
<path fill="none" stroke="#000000" stroke-width="2" stroke-opacity="0.200000" d="M452.24,-339.4C468.51,-341.49 489.55,-344.2 507.22,-346.47"/>
<polygon fill="#000000" fill-opacity="0.200000" stroke="#000000" stroke-width="2" stroke-opacity="0.200000" points="506.89,-348.54 513.11,-347.22 507.43,-344.38 506.89,-348.54"/>
</g>
<!-- src/ProfileComponents/Header.js -->
<g id="node20" class="node">
<title>src/ProfileComponents/Header.js</title>
<g id="a_node20"><a xlink:href="src/ProfileComponents/Header.js" xlink:title="Header.js">
<path fill="#ffffcc" stroke="black" d="M565.46,-329.88C565.46,-329.88 521.54,-329.88 521.54,-329.88 518.58,-329.88 515.62,-326.92 515.62,-323.96 515.62,-323.96 515.62,-318.04 515.62,-318.04 515.62,-315.08 518.58,-312.12 521.54,-312.12 521.54,-312.12 565.46,-312.12 565.46,-312.12 568.42,-312.12 571.38,-315.08 571.38,-318.04 571.38,-318.04 571.38,-323.96 571.38,-323.96 571.38,-326.92 568.42,-329.88 565.46,-329.88"/>
<text text-anchor="start" x="523.62" y="-317.32" font-family="Helvetica,sans-Serif" font-size="9.00">Header.js</text>
</a>
</g>
</g>
<!-- src/Profile.js&#45;&gt;src/ProfileComponents/Header.js -->
<g id="edge27" class="edge">
<title>src/Profile.js&#45;&gt;src/ProfileComponents/Header.js</title>
<path fill="none" stroke="#000000" stroke-width="2" stroke-opacity="0.200000" d="M452.24,-332.6C468.28,-330.54 488.96,-327.88 506.47,-325.63"/>
<polygon fill="#000000" fill-opacity="0.200000" stroke="#000000" stroke-width="2" stroke-opacity="0.200000" points="506.62,-327.73 512.3,-324.88 506.08,-323.56 506.62,-327.73"/>
</g>
<!-- src/ProfileComponents/MainContent.js -->
<g id="node21" class="node">
<title>src/ProfileComponents/MainContent.js</title>
<g id="a_node21"><a xlink:href="src/ProfileComponents/MainContent.js" xlink:title="MainContent.js">
<path fill="#ffffcc" stroke="black" d="M576.33,-389.88C576.33,-389.88 510.67,-389.88 510.67,-389.88 507.71,-389.88 504.75,-386.92 504.75,-383.96 504.75,-383.96 504.75,-378.04 504.75,-378.04 504.75,-375.08 507.71,-372.12 510.67,-372.12 510.67,-372.12 576.33,-372.12 576.33,-372.12 579.29,-372.12 582.25,-375.08 582.25,-378.04 582.25,-378.04 582.25,-383.96 582.25,-383.96 582.25,-386.92 579.29,-389.88 576.33,-389.88"/>
<text text-anchor="start" x="512.75" y="-377.32" font-family="Helvetica,sans-Serif" font-size="9.00">MainContent.js</text>
</a>
</g>
</g>
<!-- src/Profile.js&#45;&gt;src/ProfileComponents/MainContent.js -->
<g id="edge28" class="edge">
<title>src/Profile.js&#45;&gt;src/ProfileComponents/MainContent.js</title>
<path fill="none" stroke="#000000" stroke-width="2" stroke-opacity="0.200000" d="M445.75,-345.36C459.4,-351.59 477.98,-359.74 494.75,-366 497.27,-366.94 499.89,-367.88 502.53,-368.79"/>
<polygon fill="#000000" fill-opacity="0.200000" stroke="#000000" stroke-width="2" stroke-opacity="0.200000" points="501.78,-370.75 508.13,-370.66 503.11,-366.77 501.78,-370.75"/>
</g>
<!-- src/AuthComponents/Login.js&#45;&gt;src/Context/UserContext.js -->
<g id="edge7" class="edge">
<title>src/AuthComponents/Login.js&#45;&gt;src/Context/UserContext.js</title>
<path fill="none" stroke="#000000" stroke-width="2" stroke-opacity="0.200000" d="M570.11,-221.68C586.54,-215.7 608.06,-207.86 625.91,-201.36"/>
<polygon fill="#000000" fill-opacity="0.200000" stroke="#000000" stroke-width="2" stroke-opacity="0.200000" points="626.58,-203.36 631.5,-199.33 625.14,-199.41 626.58,-203.36"/>
</g>
<!-- src/AuthComponents/Signup.js&#45;&gt;src/Context/UserContext.js -->
<g id="edge8" class="edge">
<title>src/AuthComponents/Signup.js&#45;&gt;src/Context/UserContext.js</title>
<path fill="none" stroke="#000000" stroke-width="2" stroke-opacity="0.200000" d="M571.11,-254.95C578.53,-252.7 586.42,-249.76 593.25,-246 613.46,-234.88 633.1,-216.94 645.75,-204.16"/>
<polygon fill="#000000" fill-opacity="0.200000" stroke="#000000" stroke-width="2" stroke-opacity="0.200000" points="646.93,-205.96 649.6,-200.19 643.92,-203.04 646.93,-205.96"/>
</g>
<!-- src/HomeComponents/LeftBar.js&#45;&gt;src/Context/UserContext.js -->
<g id="edge15" class="edge">
<title>src/HomeComponents/LeftBar.js&#45;&gt;src/Context/UserContext.js</title>
<path fill="none" stroke="#000000" stroke-width="2" stroke-opacity="0.200000" d="M274.47,-172.78C298.91,-176.11 336.33,-180.78 369,-183 455.34,-188.88 556.4,-189.58 613.8,-189.39"/>
<polygon fill="#000000" fill-opacity="0.200000" stroke="#000000" stroke-width="2" stroke-opacity="0.200000" points="613.61,-191.49 619.61,-189.37 613.6,-187.29 613.61,-191.49"/>
</g>
<!-- src/HomeComponents/Post.js&#45;&gt;src/Context/UserContext.js -->
<g id="edge16" class="edge">
<title>src/HomeComponents/Post.js&#45;&gt;src/Context/UserContext.js</title>
<path fill="none" stroke="#000000" stroke-width="2" stroke-opacity="0.200000" d="M267.71,-97.63C270.1,-95.97 272.36,-94.09 274.25,-92 283.73,-81.53 276.04,-71.59 287.25,-63 317.9,-39.53 563.21,-31.09 593.25,-50 636.14,-77.01 652.04,-140.14 657.4,-171.16"/>
<polygon fill="#000000" fill-opacity="0.200000" stroke="#000000" stroke-width="2" stroke-opacity="0.200000" points="655.27,-171.09 658.28,-176.69 659.41,-170.43 655.27,-171.09"/>
</g>
<!-- src/HomeComponents/Post.js&#45;&gt;src/Service/Backend.js -->
<g id="edge17" class="edge">
<title>src/HomeComponents/Post.js&#45;&gt;src/Service/Backend.js</title>
<path fill="none" stroke="#000000" stroke-width="2" stroke-opacity="0.200000" d="M268.29,-97.71C270.52,-96.05 272.59,-94.15 274.25,-92 287.75,-74.5 270.35,-58.25 287.25,-44 333.84,-4.71 362.81,-31 423.75,-31 423.75,-31 423.75,-31 544.5,-31 605.34,-31 674.96,-44.18 717.02,-53.63"/>
<polygon fill="#000000" fill-opacity="0.200000" stroke="#000000" stroke-width="2" stroke-opacity="0.200000" points="716.29,-55.61 722.61,-54.9 717.23,-51.52 716.29,-55.61"/>
</g>
<!-- src/Service/FetchData.js -->
<g id="node14" class="node">
<title>src/Service/FetchData.js</title>
<g id="a_node14"><a xlink:href="src/Service/FetchData.js" xlink:title="FetchData.js">
<path fill="#ffffcc" stroke="black" d="M783.96,-41.88C783.96,-41.88 728.79,-41.88 728.79,-41.88 725.83,-41.88 722.88,-38.92 722.88,-35.96 722.88,-35.96 722.88,-30.04 722.88,-30.04 722.88,-27.08 725.83,-24.12 728.79,-24.12 728.79,-24.12 783.96,-24.12 783.96,-24.12 786.92,-24.12 789.88,-27.08 789.88,-30.04 789.88,-30.04 789.88,-35.96 789.88,-35.96 789.88,-38.92 786.92,-41.88 783.96,-41.88"/>
<text text-anchor="start" x="730.88" y="-29.32" font-family="Helvetica,sans-Serif" font-size="9.00">FetchData.js</text>
</a>
</g>
</g>
<!-- src/HomeComponents/Post.js&#45;&gt;src/Service/FetchData.js -->
<g id="edge18" class="edge">
<title>src/HomeComponents/Post.js&#45;&gt;src/Service/FetchData.js</title>
<path fill="none" stroke="#000000" stroke-width="2" stroke-opacity="0.200000" d="M268.71,-97.64C270.82,-96.01 272.74,-94.13 274.25,-92 292.55,-66.18 263.29,-42.67 287.25,-22 333.21,17.66 363.04,-17 423.75,-17 423.75,-17 423.75,-17 544.5,-17 603.33,-17 671.14,-23.27 713.63,-27.96"/>
<polygon fill="#000000" fill-opacity="0.200000" stroke="#000000" stroke-width="2" stroke-opacity="0.200000" points="713.35,-30.04 719.55,-28.62 713.82,-25.87 713.35,-30.04"/>
</g>
<!-- src/HomeComponents/PostSection.js -->
<g id="node15" class="node">
<title>src/HomeComponents/PostSection.js</title>
<g id="a_node15"><a xlink:href="src/HomeComponents/PostSection.js" xlink:title="PostSection.js">
<path fill="#ffffcc" stroke="black" d="M355.08,-115.88C355.08,-115.88 293.17,-115.88 293.17,-115.88 290.21,-115.88 287.25,-112.92 287.25,-109.96 287.25,-109.96 287.25,-104.04 287.25,-104.04 287.25,-101.08 290.21,-98.12 293.17,-98.12 293.17,-98.12 355.08,-98.12 355.08,-98.12 358.04,-98.12 361,-101.08 361,-104.04 361,-104.04 361,-109.96 361,-109.96 361,-112.92 358.04,-115.88 355.08,-115.88"/>
<text text-anchor="start" x="295.25" y="-103.33" font-family="Helvetica,sans-Serif" font-size="9.00">PostSection.js</text>
</a>
</g>
</g>
<!-- src/HomeComponents/Post.js&#45;&gt;src/HomeComponents/PostSection.js -->
<g id="edge19" class="edge">
<title>src/HomeComponents/Post.js&#45;&gt;src/HomeComponents/PostSection.js</title>
<path fill="none" stroke="#000000" stroke-width="2" stroke-opacity="0.200000" d="M274.36,-107C275.62,-107 276.91,-107 278.21,-107"/>
<polygon fill="#000000" fill-opacity="0.200000" stroke="#000000" stroke-width="2" stroke-opacity="0.200000" points="277.86,-109.1 283.86,-107 277.86,-104.9 277.86,-109.1"/>
</g>
<!-- src/HomeComponents/TopBar.js&#45;&gt;src/Context/UserContext.js -->
<g id="edge25" class="edge">
<title>src/HomeComponents/TopBar.js&#45;&gt;src/Context/UserContext.js</title>
<path fill="none" stroke="#000000" stroke-width="2" stroke-opacity="0.200000" d="M266.67,-128.65C269.44,-126.71 272.09,-124.49 274.25,-122 283.78,-111.03 276.52,-101.8 287.25,-92 315.5,-66.19 331.22,-71.08 369,-65 418.2,-57.09 550.48,-39.43 593.25,-65 632.26,-88.32 649.75,-143.2 656.4,-171.48"/>
<polygon fill="#000000" fill-opacity="0.200000" stroke="#000000" stroke-width="2" stroke-opacity="0.200000" points="654.28,-171.59 657.61,-177.01 658.38,-170.7 654.28,-171.59"/>
</g>
<!-- src/HomeComponents/Posts/CommentSection.js -->
<g id="node16" class="node">
<title>src/HomeComponents/Posts/CommentSection.js</title>
<g id="a_node16"><a xlink:href="src/HomeComponents/Posts/CommentSection.js" xlink:title="CommentSection.js">
<path fill="#ffffcc" stroke="black" d="M466.58,-93.88C466.58,-93.88 382.92,-93.88 382.92,-93.88 379.96,-93.88 377,-90.92 377,-87.96 377,-87.96 377,-82.04 377,-82.04 377,-79.08 379.96,-76.12 382.92,-76.12 382.92,-76.12 466.58,-76.12 466.58,-76.12 469.54,-76.12 472.5,-79.08 472.5,-82.04 472.5,-82.04 472.5,-87.96 472.5,-87.96 472.5,-90.92 469.54,-93.88 466.58,-93.88"/>
<text text-anchor="start" x="385" y="-81.33" font-family="Helvetica,sans-Serif" font-size="9.00">CommentSection.js</text>
</a>
</g>
</g>
<!-- src/HomeComponents/PostSection.js&#45;&gt;src/HomeComponents/Posts/CommentSection.js -->
<g id="edge20" class="edge">
<title>src/HomeComponents/PostSection.js&#45;&gt;src/HomeComponents/Posts/CommentSection.js</title>
<path fill="none" stroke="#000000" stroke-width="2" stroke-opacity="0.200000" d="M361.29,-98.93C365.17,-98.07 369.16,-97.18 373.17,-96.28"/>
<polygon fill="#000000" fill-opacity="0.200000" stroke="#000000" stroke-width="2" stroke-opacity="0.200000" points="373.56,-98.35 378.96,-94.99 372.65,-94.25 373.56,-98.35"/>
</g>
<!-- src/HomeComponents/Posts/Like.js -->
<g id="node17" class="node">
<title>src/HomeComponents/Posts/Like.js</title>
<g id="a_node17"><a xlink:href="src/HomeComponents/Posts/Like.js" xlink:title="Like.js">
<path fill="#ffffcc" stroke="black" d="M445.83,-123.88C445.83,-123.88 403.67,-123.88 403.67,-123.88 400.71,-123.88 397.75,-120.92 397.75,-117.96 397.75,-117.96 397.75,-112.04 397.75,-112.04 397.75,-109.08 400.71,-106.12 403.67,-106.12 403.67,-106.12 445.83,-106.12 445.83,-106.12 448.79,-106.12 451.75,-109.08 451.75,-112.04 451.75,-112.04 451.75,-117.96 451.75,-117.96 451.75,-120.92 448.79,-123.88 445.83,-123.88"/>
<text text-anchor="start" x="411.62" y="-111.33" font-family="Helvetica,sans-Serif" font-size="9.00">Like.js</text>
</a>
</g>
</g>
<!-- src/HomeComponents/PostSection.js&#45;&gt;src/HomeComponents/Posts/Like.js -->
<g id="edge21" class="edge">
<title>src/HomeComponents/PostSection.js&#45;&gt;src/HomeComponents/Posts/Like.js</title>
<path fill="none" stroke="#000000" stroke-width="2" stroke-opacity="0.200000" d="M361.29,-109.93C370.18,-110.65 379.69,-111.43 388.54,-112.14"/>
<polygon fill="#000000" fill-opacity="0.200000" stroke="#000000" stroke-width="2" stroke-opacity="0.200000" points="388.3,-114.23 394.45,-112.62 388.64,-110.05 388.3,-114.23"/>
</g>
<!-- src/HomeComponents/Posts/Comment.js -->
<g id="node18" class="node">
<title>src/HomeComponents/Posts/Comment.js</title>
<g id="a_node18"><a xlink:href="src/HomeComponents/Posts/Comment.js" xlink:title="Comment.js">
<path fill="#ffffcc" stroke="black" d="M569.96,-123.88C569.96,-123.88 517.04,-123.88 517.04,-123.88 514.08,-123.88 511.12,-120.92 511.12,-117.96 511.12,-117.96 511.12,-112.04 511.12,-112.04 511.12,-109.08 514.08,-106.12 517.04,-106.12 517.04,-106.12 569.96,-106.12 569.96,-106.12 572.92,-106.12 575.88,-109.08 575.88,-112.04 575.88,-112.04 575.88,-117.96 575.88,-117.96 575.88,-120.92 572.92,-123.88 569.96,-123.88"/>
<text text-anchor="start" x="519.12" y="-111.33" font-family="Helvetica,sans-Serif" font-size="9.00">Comment.js</text>
</a>
</g>
</g>
<!-- src/HomeComponents/Posts/CommentSection.js&#45;&gt;src/HomeComponents/Posts/Comment.js -->
<g id="edge23" class="edge">
<title>src/HomeComponents/Posts/CommentSection.js&#45;&gt;src/HomeComponents/Posts/Comment.js</title>
<path fill="none" stroke="#000000" stroke-width="2" stroke-opacity="0.200000" d="M462.05,-94.33C474.9,-97.63 489.42,-101.36 502.56,-104.74"/>
<polygon fill="#000000" fill-opacity="0.200000" stroke="#000000" stroke-width="2" stroke-opacity="0.200000" points="501.69,-106.68 508.02,-106.14 502.74,-102.61 501.69,-106.68"/>
</g>
<!-- src/HomeComponents/Posts/Like.js&#45;&gt;src/Context/UserContext.js -->
<g id="edge24" class="edge">
<title>src/HomeComponents/Posts/Like.js&#45;&gt;src/Context/UserContext.js</title>
<path fill="none" stroke="#000000" stroke-width="2" stroke-opacity="0.200000" d="M452.15,-123.34C493.58,-136.44 574.05,-161.87 621.76,-176.95"/>
<polygon fill="#000000" fill-opacity="0.200000" stroke="#000000" stroke-width="2" stroke-opacity="0.200000" points="621.03,-178.92 627.38,-178.73 622.29,-174.92 621.03,-178.92"/>
</g>
<!-- src/HomeComponents/Posts/Comment.js&#45;&gt;src/Context/UserContext.js -->
<g id="edge22" class="edge">
<title>src/HomeComponents/Posts/Comment.js&#45;&gt;src/Context/UserContext.js</title>
<path fill="none" stroke="#000000" stroke-width="2" stroke-opacity="0.200000" d="M559.11,-124.37C579.05,-137.16 614.94,-160.18 638.07,-175.01"/>
<polygon fill="#000000" fill-opacity="0.200000" stroke="#000000" stroke-width="2" stroke-opacity="0.200000" points="636.65,-176.6 642.83,-178.07 638.92,-173.06 636.65,-176.6"/>
</g>
<!-- src/ProfileComponents/Header.js&#45;&gt;src/Context/UserContext.js -->
<g id="edge29" class="edge">
<title>src/ProfileComponents/Header.js&#45;&gt;src/Context/UserContext.js</title>
<path fill="none" stroke="#000000" stroke-width="2" stroke-opacity="0.200000" d="M571.77,-312.13C579.29,-308.81 587.06,-304.48 593.25,-299 622.89,-272.74 643.43,-230.07 653.26,-206.34"/>
<polygon fill="#000000" fill-opacity="0.200000" stroke="#000000" stroke-width="2" stroke-opacity="0.200000" points="655.1,-207.4 655.38,-201.05 651.2,-205.84 655.1,-207.4"/>
</g>
<!-- src/ProfileComponents/MainContent.js&#45;&gt;src/Context/UserContext.js -->
<g id="edge30" class="edge">
<title>src/ProfileComponents/MainContent.js&#45;&gt;src/Context/UserContext.js</title>
<path fill="none" stroke="#000000" stroke-width="2" stroke-opacity="0.200000" d="M582.62,-373.15C586.5,-371.26 590.15,-368.91 593.25,-366 639.82,-322.21 654.09,-242.65 658.25,-207.06"/>
<polygon fill="#000000" fill-opacity="0.200000" stroke="#000000" stroke-width="2" stroke-opacity="0.200000" points="660.33,-207.45 658.86,-201.26 656.15,-207.01 660.33,-207.45"/>
</g>
<!-- src/index.js -->
<g id="node22" class="node">
<title>src/index.js</title>
<g id="a_node22"><a xlink:href="src/index.js" xlink:title="index.js">
<path fill="#ffffcc" stroke="black" d="M64.08,-306.88C64.08,-306.88 21.92,-306.88 21.92,-306.88 18.96,-306.88 16,-303.92 16,-300.96 16,-300.96 16,-295.04 16,-295.04 16,-292.08 18.96,-289.12 21.92,-289.12 21.92,-289.12 64.08,-289.12 64.08,-289.12 67.04,-289.12 70,-292.08 70,-295.04 70,-295.04 70,-300.96 70,-300.96 70,-303.92 67.04,-306.88 64.08,-306.88"/>
<text text-anchor="start" x="27.25" y="-294.32" font-family="Helvetica,sans-Serif" font-size="9.00">index.js</text>
</a>
</g>
</g>
<!-- src/index.js&#45;&gt;src/App.js -->
<g id="edge31" class="edge">
<title>src/index.js&#45;&gt;src/App.js</title>
<path fill="none" stroke="#000000" stroke-width="2" stroke-opacity="0.200000" d="M70.44,-298C71.58,-298 72.74,-298 73.9,-298"/>
<polygon fill="#000000" fill-opacity="0.200000" stroke="#000000" stroke-width="2" stroke-opacity="0.200000" points="73.77,-300.1 79.77,-298 73.77,-295.9 73.77,-300.1"/>
</g>
</g>
</svg>
